<?xml version="1.0" encoding="UTF-8" standalone="no"?>
<!DOCTYPE svg PUBLIC "-//W3C//DTD SVG 1.1//EN"
 "http://www.w3.org/Graphics/SVG/1.1/DTD/svg11.dtd">
<!-- Generated by graphviz version 2.38.0 (20140413.2041)
 -->
<!-- Title: Dependencies Pages: 1 -->
<svg width="1535pt" height="813pt"
 viewBox="0.00 0.00 1535.00 812.98" xmlns="http://www.w3.org/2000/svg" xmlns:xlink="http://www.w3.org/1999/xlink">
<g id="graph0" class="graph" transform="scale(1 1) rotate(0) translate(4 808.984)">
<title>Dependencies</title>
<polygon fill="white" stroke="none" points="-4,4 -4,-808.984 1531,-808.984 1531,4 -4,4"/>
<text text-anchor="middle" x="763.5" y="-788.184" font-family="Times New Roman,serif" font-size="16.00" fill="darkgreen">Dependencies</text>
<g id="clust1" class="cluster"><title>cluster_G__Alexander_Work_Projects_others_corefx_src</title>
<polygon fill="none" stroke="grey" stroke-width="2" stroke-dasharray="1,5" points="8,-14.9837 8,-770.984 1519,-770.984 1519,-14.9837 8,-14.9837"/>
<text text-anchor="middle" x="763.5" y="-754.184" font-family="Times New Roman,serif" font-size="16.00" fill="darkgreen">G:/Alexander/Work/Projects/others/corefx/src/</text>
</g>
<g id="clust2" class="cluster"><title>cluster_G__Alexander_Work_Projects_others_corefx_src_Microsoft_Win32_Primitives</title>
<polygon fill="none" stroke="grey" stroke-width="2" stroke-dasharray="1,5" points="534.5,-300.984 534.5,-420.984 776.5,-420.984 776.5,-300.984 534.5,-300.984"/>
<text text-anchor="middle" x="655.5" y="-404.184" font-family="Times New Roman,serif" font-size="16.00" fill="darkgreen">Microsoft.Win32.Primitives/</text>
</g>
<g id="clust3" class="cluster"><title>cluster_G__Alexander_Work_Projects_others_corefx_src_Microsoft_Win32_Primitives_ref</title>
<polygon fill="none" stroke="grey" stroke-width="2" stroke-dasharray="1,5" points="542.5,-308.984 542.5,-386.984 768.5,-386.984 768.5,-308.984 542.5,-308.984"/>
<text text-anchor="middle" x="655.5" y="-370.184" font-family="Times New Roman,serif" font-size="16.00" fill="darkgreen">Microsoft.Win32.Primitives/ref/</text>
</g>
<g id="clust4" class="cluster"><title>cluster_G__Alexander_Work_Projects_others_corefx_src_System_Collections_NonGeneric</title>
<polygon fill="none" stroke="grey" stroke-width="2" stroke-dasharray="1,5" points="522,-84.9837 522,-204.984 789,-204.984 789,-84.9837 522,-84.9837"/>
<text text-anchor="middle" x="655.5" y="-188.184" font-family="Times New Roman,serif" font-size="16.00" fill="darkgreen">System.Collections.NonGeneric/</text>
</g>
<g id="clust5" class="cluster"><title>cluster_G__Alexander_Work_Projects_others_corefx_src_System_Collections_NonGeneric_ref</title>
<polygon fill="none" stroke="grey" stroke-width="2" stroke-dasharray="1,5" points="530,-92.9837 530,-170.984 781,-170.984 781,-92.9837 530,-92.9837"/>
<text text-anchor="middle" x="655.5" y="-154.184" font-family="Times New Roman,serif" font-size="16.00" fill="darkgreen">System.Collections.NonGeneric/ref/</text>
</g>
<g id="clust6" class="cluster"><title>cluster_G__Alexander_Work_Projects_others_corefx_src_System_Collections_Specialized</title>
<polygon fill="none" stroke="grey" stroke-width="2" stroke-dasharray="1,5" points="252,-142.984 252,-262.984 514,-262.984 514,-142.984 252,-142.984"/>
<text text-anchor="middle" x="383" y="-246.184" font-family="Times New Roman,serif" font-size="16.00" fill="darkgreen">System.Collections.Specialized/</text>
</g>
<g id="clust7" class="cluster"><title>cluster_G__Alexander_Work_Projects_others_corefx_src_System_Collections_Specialized_ref</title>
<polygon fill="none" stroke="grey" stroke-width="2" stroke-dasharray="1,5" points="260,-150.984 260,-228.984 506,-228.984 506,-150.984 260,-150.984"/>
<text text-anchor="middle" x="383" y="-212.184" font-family="Times New Roman,serif" font-size="16.00" fill="darkgreen">System.Collections.Specialized/ref/</text>
</g>
<g id="clust8" class="cluster"><title>cluster_G__Alexander_Work_Projects_others_corefx_src_System_Globalization</title>
<polygon fill="none" stroke="grey" stroke-width="2" stroke-dasharray="1,5" points="829.5,-22.9837 829.5,-142.984 1035.5,-142.984 1035.5,-22.9837 829.5,-22.9837"/>
<text text-anchor="middle" x="932.5" y="-126.184" font-family="Times New Roman,serif" font-size="16.00" fill="darkgreen">System.Globalization/</text>
</g>
<g id="clust9" class="cluster"><title>cluster_G__Alexander_Work_Projects_others_corefx_src_System_Globalization_ref</title>
<polygon fill="none" stroke="grey" stroke-width="2" stroke-dasharray="1,5" points="837.5,-30.9837 837.5,-108.984 1027.5,-108.984 1027.5,-30.9837 837.5,-30.9837"/>
<text text-anchor="middle" x="932.5" y="-92.1837" font-family="Times New Roman,serif" font-size="16.00" fill="darkgreen">System.Globalization/ref/</text>
</g>
<g id="clust10" class="cluster"><title>cluster_G__Alexander_Work_Projects_others_corefx_src_System_IO</title>
<polygon fill="none" stroke="grey" stroke-width="2" stroke-dasharray="1,5" points="581.5,-616.984 581.5,-736.984 729.5,-736.984 729.5,-616.984 581.5,-616.984"/>
<text text-anchor="middle" x="655.5" y="-720.184" font-family="Times New Roman,serif" font-size="16.00" fill="darkgreen">System.IO/</text>
</g>
<g id="clust11" class="cluster"><title>cluster_G__Alexander_Work_Projects_others_corefx_src_System_IO_ref</title>
<polygon fill="none" stroke="grey" stroke-width="2" stroke-dasharray="1,5" points="589.5,-624.984 589.5,-702.984 721.5,-702.984 721.5,-624.984 589.5,-624.984"/>
<text text-anchor="middle" x="655.5" y="-686.184" font-family="Times New Roman,serif" font-size="16.00" fill="darkgreen">System.IO/ref/</text>
</g>
<g id="clust12" class="cluster"><title>cluster_G__Alexander_Work_Projects_others_corefx_src_System_Memory</title>
<polygon fill="none" stroke="grey" stroke-width="2" stroke-dasharray="1,5" points="565.5,-458.984 565.5,-578.984 745.5,-578.984 745.5,-458.984 565.5,-458.984"/>
<text text-anchor="middle" x="655.5" y="-562.184" font-family="Times New Roman,serif" font-size="16.00" fill="darkgreen">System.Memory/</text>
</g>
<g id="clust13" class="cluster"><title>cluster_G__Alexander_Work_Projects_others_corefx_src_System_Memory_ref</title>
<polygon fill="none" stroke="grey" stroke-width="2" stroke-dasharray="1,5" points="573.5,-466.984 573.5,-544.984 737.5,-544.984 737.5,-466.984 573.5,-466.984"/>
<text text-anchor="middle" x="655.5" y="-528.184" font-family="Times New Roman,serif" font-size="16.00" fill="darkgreen">System.Memory/ref/</text>
</g>
<g id="clust14" class="cluster"><title>cluster_G__Alexander_Work_Projects_others_corefx_src_System_Net_Primitives</title>
<polygon fill="none" stroke="grey" stroke-width="2" stroke-dasharray="1,5" points="277.5,-394.984 277.5,-514.984 488.5,-514.984 488.5,-394.984 277.5,-394.984"/>
<text text-anchor="middle" x="383" y="-498.184" font-family="Times New Roman,serif" font-size="16.00" fill="darkgreen">System.Net.Primitives/</text>
</g>
<g id="clust15" class="cluster"><title>cluster_G__Alexander_Work_Projects_others_corefx_src_System_Net_Primitives_ref</title>
<polygon fill="none" stroke="grey" stroke-width="2" stroke-dasharray="1,5" points="285.5,-402.984 285.5,-480.984 480.5,-480.984 480.5,-402.984 285.5,-402.984"/>
<text text-anchor="middle" x="383" y="-464.184" font-family="Times New Roman,serif" font-size="16.00" fill="darkgreen">System.Net.Primitives/ref/</text>
</g>
<g id="clust16" class="cluster"><title>cluster_G__Alexander_Work_Projects_others_corefx_src_System_Net_WebSockets</title>
<polygon fill="none" stroke="grey" stroke-width="2" stroke-dasharray="1,5" points="16,-300.984 16,-420.984 244,-420.984 244,-300.984 16,-300.984"/>
<text text-anchor="middle" x="130" y="-404.184" font-family="Times New Roman,serif" font-size="16.00" fill="darkgreen">System.Net.WebSockets/</text>
</g>
<g id="clust17" class="cluster"><title>cluster_G__Alexander_Work_Projects_others_corefx_src_System_Net_WebSockets_ref</title>
<polygon fill="none" stroke="grey" stroke-width="2" stroke-dasharray="1,5" points="24,-308.984 24,-386.984 236,-386.984 236,-308.984 24,-308.984"/>
<text text-anchor="middle" x="130" y="-370.184" font-family="Times New Roman,serif" font-size="16.00" fill="darkgreen">System.Net.WebSockets/ref/</text>
</g>
<g id="clust18" class="cluster"><title>cluster_G__Alexander_Work_Projects_others_corefx_src_System_Reflection_Primitives</title>
<polygon fill="none" stroke="grey" stroke-width="2" stroke-dasharray="1,5" points="1076,-290.984 1076,-410.984 1324,-410.984 1324,-290.984 1076,-290.984"/>
<text text-anchor="middle" x="1200" y="-394.184" font-family="Times New Roman,serif" font-size="16.00" fill="darkgreen">System.Reflection.Primitives/</text>
</g>
<g id="clust19" class="cluster"><title>cluster_G__Alexander_Work_Projects_others_corefx_src_System_Reflection_Primitives_ref</title>
<polygon fill="none" stroke="grey" stroke-width="2" stroke-dasharray="1,5" points="1084,-298.984 1084,-376.984 1316,-376.984 1316,-298.984 1084,-298.984"/>
<text text-anchor="middle" x="1200" y="-360.184" font-family="Times New Roman,serif" font-size="16.00" fill="darkgreen">System.Reflection.Primitives/ref/</text>
</g>
<g id="clust20" class="cluster"><title>cluster_G__Alexander_Work_Projects_others_corefx_src_System_Reflection</title>
<polygon fill="none" stroke="grey" stroke-width="2" stroke-dasharray="1,5" points="1105,-418.984 1105,-538.984 1295,-538.984 1295,-418.984 1105,-418.984"/>
<text text-anchor="middle" x="1200" y="-522.184" font-family="Times New Roman,serif" font-size="16.00" fill="darkgreen">System.Reflection/</text>
</g>
<g id="clust21" class="cluster"><title>cluster_G__Alexander_Work_Projects_others_corefx_src_System_Reflection_ref</title>
<polygon fill="none" stroke="grey" stroke-width="2" stroke-dasharray="1,5" points="1113,-426.984 1113,-504.984 1287,-504.984 1287,-426.984 1113,-426.984"/>
<text text-anchor="middle" x="1200" y="-488.184" font-family="Times New Roman,serif" font-size="16.00" fill="darkgreen">System.Reflection/ref/</text>
</g>
<g id="clust22" class="cluster"><title>cluster_G__Alexander_Work_Projects_others_corefx_src_System_Runtime_Extensions</title>
<polygon fill="none" stroke="grey" stroke-width="2" stroke-dasharray="1,5" points="810.5,-160.984 810.5,-280.984 1054.5,-280.984 1054.5,-160.984 810.5,-160.984"/>
<text text-anchor="middle" x="932.5" y="-264.184" font-family="Times New Roman,serif" font-size="16.00" fill="darkgreen">System.Runtime.Extensions/</text>
</g>
<g id="clust23" class="cluster"><title>cluster_G__Alexander_Work_Projects_others_corefx_src_System_Runtime_Extensions_ref</title>
<polygon fill="none" stroke="grey" stroke-width="2" stroke-dasharray="1,5" points="818.5,-168.984 818.5,-246.984 1046.5,-246.984 1046.5,-168.984 818.5,-168.984"/>
<text text-anchor="middle" x="932.5" y="-230.184" font-family="Times New Roman,serif" font-size="16.00" fill="darkgreen">System.Runtime.Extensions/ref/</text>
</g>
<g id="clust24" class="cluster"><title>cluster_G__Alexander_Work_Projects_others_corefx_src_System_Runtime_Handles</title>
<polygon fill="none" stroke="grey" stroke-width="2" stroke-dasharray="1,5" points="1086,-546.984 1086,-666.984 1314,-666.984 1314,-546.984 1086,-546.984"/>
<text text-anchor="middle" x="1200" y="-650.184" font-family="Times New Roman,serif" font-size="16.00" fill="darkgreen">System.Runtime.Handles/</text>
</g>
<g id="clust25" class="cluster"><title>cluster_G__Alexander_Work_Projects_others_corefx_src_System_Runtime_Handles_ref</title>
<polygon fill="none" stroke="grey" stroke-width="2" stroke-dasharray="1,5" points="1094,-554.984 1094,-632.984 1306,-632.984 1306,-554.984 1094,-554.984"/>
<text text-anchor="middle" x="1200" y="-616.184" font-family="Times New Roman,serif" font-size="16.00" fill="darkgreen">System.Runtime.Handles/ref/</text>
</g>
<g id="clust26" class="cluster"><title>cluster_G__Alexander_Work_Projects_others_corefx_src_System_Runtime_InteropServices</title>
<polygon fill="none" stroke="grey" stroke-width="2" stroke-dasharray="1,5" points="797,-417.984 797,-537.984 1068,-537.984 1068,-417.984 797,-417.984"/>
<text text-anchor="middle" x="932.5" y="-521.184" font-family="Times New Roman,serif" font-size="16.00" fill="darkgreen">System.Runtime.InteropServices/</text>
</g>
<g id="clust27" class="cluster"><title>cluster_G__Alexander_Work_Projects_others_corefx_src_System_Runtime_InteropServices_ref</title>
<polygon fill="none" stroke="grey" stroke-width="2" stroke-dasharray="1,5" points="805,-425.984 805,-503.984 1060,-503.984 1060,-425.984 805,-425.984"/>
<text text-anchor="middle" x="932.5" y="-487.184" font-family="Times New Roman,serif" font-size="16.00" fill="darkgreen">System.Runtime.InteropServices/ref/</text>
</g>
<g id="clust28" class="cluster"><title>cluster_G__Alexander_Work_Projects_others_corefx_src_System_Runtime</title>
<polygon fill="none" stroke="grey" stroke-width="2" stroke-dasharray="1,5" points="1332,-237.984 1332,-357.984 1511,-357.984 1511,-237.984 1332,-237.984"/>
<text text-anchor="middle" x="1421.5" y="-341.184" font-family="Times New Roman,serif" font-size="16.00" fill="darkgreen">System.Runtime/</text>
</g>
<g id="clust29" class="cluster"><title>cluster_G__Alexander_Work_Projects_others_corefx_src_System_Runtime_ref</title>
<polygon fill="none" stroke="grey" stroke-width="2" stroke-dasharray="1,5" points="1340,-245.984 1340,-323.984 1503,-323.984 1503,-245.984 1340,-245.984"/>
<text text-anchor="middle" x="1421.5" y="-307.184" font-family="Times New Roman,serif" font-size="16.00" fill="darkgreen">System.Runtime/ref/</text>
</g>
<g id="clust30" class="cluster"><title>cluster_G__Alexander_Work_Projects_others_corefx_src_System_Security_Principal</title>
<polygon fill="none" stroke="grey" stroke-width="2" stroke-dasharray="1,5" points="1084.5,-72.9837 1084.5,-192.984 1315.5,-192.984 1315.5,-72.9837 1084.5,-72.9837"/>
<text text-anchor="middle" x="1200" y="-176.184" font-family="Times New Roman,serif" font-size="16.00" fill="darkgreen">System.Security.Principal/</text>
</g>
<g id="clust31" class="cluster"><title>cluster_G__Alexander_Work_Projects_others_corefx_src_System_Security_Principal_ref</title>
<polygon fill="none" stroke="grey" stroke-width="2" stroke-dasharray="1,5" points="1092.5,-80.9837 1092.5,-158.984 1307.5,-158.984 1307.5,-80.9837 1092.5,-80.9837"/>
<text text-anchor="middle" x="1200" y="-142.184" font-family="Times New Roman,serif" font-size="16.00" fill="darkgreen">System.Security.Principal/ref/</text>
</g>
<g id="clust32" class="cluster"><title>cluster_G__Alexander_Work_Projects_others_corefx_src_System_Text_Encoding</title>
<polygon fill="none" stroke="grey" stroke-width="2" stroke-dasharray="1,5" points="825,-616.984 825,-736.984 1040,-736.984 1040,-616.984 825,-616.984"/>
<text text-anchor="middle" x="932.5" y="-720.184" font-family="Times New Roman,serif" font-size="16.00" fill="darkgreen">System.Text.Encoding/</text>
</g>
<g id="clust33" class="cluster"><title>cluster_G__Alexander_Work_Projects_others_corefx_src_System_Text_Encoding_ref</title>
<polygon fill="none" stroke="grey" stroke-width="2" stroke-dasharray="1,5" points="833,-624.984 833,-702.984 1032,-702.984 1032,-624.984 833,-624.984"/>
<text text-anchor="middle" x="932.5" y="-686.184" font-family="Times New Roman,serif" font-size="16.00" fill="darkgreen">System.Text.Encoding/ref/</text>
</g>
<g id="clust34" class="cluster"><title>cluster_G__Alexander_Work_Projects_others_corefx_src_System_Threading_Tasks</title>
<polygon fill="none" stroke="grey" stroke-width="2" stroke-dasharray="1,5" points="270,-522.984 270,-642.984 496,-642.984 496,-522.984 270,-522.984"/>
<text text-anchor="middle" x="383" y="-626.184" font-family="Times New Roman,serif" font-size="16.00" fill="darkgreen">System.Threading.Tasks/</text>
</g>
<g id="clust35" class="cluster"><title>cluster_G__Alexander_Work_Projects_others_corefx_src_System_Threading_Tasks_ref</title>
<polygon fill="none" stroke="grey" stroke-width="2" stroke-dasharray="1,5" points="278,-530.984 278,-608.984 488,-608.984 488,-530.984 278,-530.984"/>
<text text-anchor="middle" x="383" y="-592.184" font-family="Times New Roman,serif" font-size="16.00" fill="darkgreen">System.Threading.Tasks/ref/</text>
</g>
<!-- node0 -->
<g id="node1" class="node"><title>node0</title>
<g id="a_node1"><a xlink:title="G:\Alexander\Work\Projects\others\corefx\src\System.Collections.Specialized\ref\System.Collections.Specialized.csproj">
<path fill="beige" stroke="brown" stroke-width="2" d="M486,-194.984C486,-194.984 280,-194.984 280,-194.984 274,-194.984 268,-188.984 268,-182.984 268,-182.984 268,-170.984 268,-170.984 268,-164.984 274,-158.984 280,-158.984 280,-158.984 486,-158.984 486,-158.984 492,-158.984 498,-164.984 498,-170.984 498,-170.984 498,-182.984 498,-182.984 498,-188.984 492,-194.984 486,-194.984"/>
<text text-anchor="middle" x="383" y="-173.284" font-family="Times New Roman,serif" font-size="14.00">System.Collections.Specialized.csproj</text>
</a>
</g>
</g>
<!-- node12 -->
<g id="node2" class="node"><title>node12</title>
<g id="a_node2"><a xlink:title="G:\Alexander\Work\Projects\others\corefx\src\System.Runtime.Extensions\ref\System.Runtime.Extensions.csproj">
<path fill="beige" stroke="brown" stroke-width="2" d="M1026.5,-212.984C1026.5,-212.984 838.5,-212.984 838.5,-212.984 832.5,-212.984 826.5,-206.984 826.5,-200.984 826.5,-200.984 826.5,-188.984 826.5,-188.984 826.5,-182.984 832.5,-176.984 838.5,-176.984 838.5,-176.984 1026.5,-176.984 1026.5,-176.984 1032.5,-176.984 1038.5,-182.984 1038.5,-188.984 1038.5,-188.984 1038.5,-200.984 1038.5,-200.984 1038.5,-206.984 1032.5,-212.984 1026.5,-212.984"/>
<text text-anchor="middle" x="932.5" y="-191.284" font-family="Times New Roman,serif" font-size="14.00">System.Runtime.Extensions.csproj</text>
</a>
</g>
</g>
<!-- node0&#45;&gt;node12 -->
<g id="edge1" class="edge"><title>node0&#45;&gt;node12</title>
<g id="a_edge1"><a xlink:title="System.Collections.Specialized.csproj &#45;&gt; System.Runtime.Extensions.csproj">
<path fill="none" stroke="brown" d="M498.108,-180.735C591.39,-183.802 722.687,-188.119 816.272,-191.195"/>
<polygon fill="brown" stroke="brown" points="816.239,-194.696 826.348,-191.527 816.469,-187.7 816.239,-194.696"/>
</a>
</g>
</g>
<!-- node7 -->
<g id="node3" class="node"><title>node7</title>
<g id="a_node3"><a xlink:title="G:\Alexander\Work\Projects\others\corefx\src\System.Collections.NonGeneric\ref\System.Collections.NonGeneric.csproj">
<path fill="beige" stroke="brown" stroke-width="2" d="M761,-136.984C761,-136.984 550,-136.984 550,-136.984 544,-136.984 538,-130.984 538,-124.984 538,-124.984 538,-112.984 538,-112.984 538,-106.984 544,-100.984 550,-100.984 550,-100.984 761,-100.984 761,-100.984 767,-100.984 773,-106.984 773,-112.984 773,-112.984 773,-124.984 773,-124.984 773,-130.984 767,-136.984 761,-136.984"/>
<text text-anchor="middle" x="655.5" y="-115.284" font-family="Times New Roman,serif" font-size="14.00">System.Collections.NonGeneric.csproj</text>
</a>
</g>
</g>
<!-- node0&#45;&gt;node7 -->
<g id="edge2" class="edge"><title>node0&#45;&gt;node7</title>
<g id="a_edge2"><a xlink:title="System.Collections.Specialized.csproj &#45;&gt; System.Collections.NonGeneric.csproj">
<path fill="none" stroke="brown" d="M468.105,-158.95C497.366,-152.676 530.373,-145.599 560.391,-139.162"/>
<polygon fill="brown" stroke="brown" points="561.403,-142.525 570.447,-137.006 559.935,-135.681 561.403,-142.525"/>
</a>
</g>
</g>
<!-- node9 -->
<g id="node4" class="node"><title>node9</title>
<g id="a_node4"><a xlink:title="G:\Alexander\Work\Projects\others\corefx\src\System.Runtime\ref\System.Runtime.csproj">
<path fill="beige" stroke="brown" stroke-width="2" d="M1483,-289.984C1483,-289.984 1360,-289.984 1360,-289.984 1354,-289.984 1348,-283.984 1348,-277.984 1348,-277.984 1348,-265.984 1348,-265.984 1348,-259.984 1354,-253.984 1360,-253.984 1360,-253.984 1483,-253.984 1483,-253.984 1489,-253.984 1495,-259.984 1495,-265.984 1495,-265.984 1495,-277.984 1495,-277.984 1495,-283.984 1489,-289.984 1483,-289.984"/>
<text text-anchor="middle" x="1421.5" y="-268.284" font-family="Times New Roman,serif" font-size="14.00">System.Runtime.csproj</text>
</a>
</g>
</g>
<!-- node0&#45;&gt;node9 -->
<g id="edge3" class="edge"><title>node0&#45;&gt;node9</title>
<g id="a_edge3"><a xlink:title="System.Collections.Specialized.csproj &#45;&gt; System.Runtime.csproj">
<path fill="none" stroke="brown" d="M461.089,-195.024C543.636,-213.346 678.732,-240.472 797,-250.984 916.972,-261.647 973.582,-325.764 1068,-250.984 1080.17,-241.345 1063.83,-226.622 1076,-216.984 1162.4,-148.55 1217.45,-188.753 1324,-216.984 1347.23,-223.138 1370.71,-236.332 1388.69,-248.255"/>
<polygon fill="brown" stroke="brown" points="1386.82,-251.216 1397.05,-253.969 1390.77,-245.437 1386.82,-251.216"/>
</a>
</g>
</g>
<!-- node12&#45;&gt;node9 -->
<g id="edge24" class="edge"><title>node12&#45;&gt;node9</title>
<g id="a_edge24"><a xlink:title="System.Runtime.Extensions.csproj &#45;&gt; System.Runtime.csproj">
<path fill="none" stroke="brown" d="M1038.82,-179.153C1049.93,-173.682 1060.05,-166.468 1068,-156.984 1079.48,-143.291 1062.75,-88.9722 1076,-76.9837 1116.86,-40.0039 1277.18,-47.9138 1324,-76.9837 1383.42,-113.875 1407.37,-199.409 1416.07,-243.924"/>
<polygon fill="brown" stroke="brown" points="1412.63,-244.589 1417.88,-253.793 1419.52,-243.326 1412.63,-244.589"/>
</a>
</g>
</g>
<!-- node1 -->
<g id="node5" class="node"><title>node1</title>
<g id="a_node5"><a xlink:title="G:\Alexander\Work\Projects\others\corefx\src\System.Security.Principal\ref\System.Security.Principal.csproj">
<path fill="beige" stroke="brown" stroke-width="2" d="M1287.5,-124.984C1287.5,-124.984 1112.5,-124.984 1112.5,-124.984 1106.5,-124.984 1100.5,-118.984 1100.5,-112.984 1100.5,-112.984 1100.5,-100.984 1100.5,-100.984 1100.5,-94.9837 1106.5,-88.9837 1112.5,-88.9837 1112.5,-88.9837 1287.5,-88.9837 1287.5,-88.9837 1293.5,-88.9837 1299.5,-94.9837 1299.5,-100.984 1299.5,-100.984 1299.5,-112.984 1299.5,-112.984 1299.5,-118.984 1293.5,-124.984 1287.5,-124.984"/>
<text text-anchor="middle" x="1200" y="-103.284" font-family="Times New Roman,serif" font-size="14.00">System.Security.Principal.csproj</text>
</a>
</g>
</g>
<!-- node12&#45;&gt;node1 -->
<g id="edge23" class="edge"><title>node12&#45;&gt;node1</title>
<g id="a_edge23"><a xlink:title="System.Runtime.Extensions.csproj &#45;&gt; System.Security.Principal.csproj">
<path fill="none" stroke="brown" d="M1001.94,-176.921C1023.23,-170.963 1046.69,-164.044 1068,-156.984 1093.69,-148.47 1121.78,-137.921 1145.33,-128.709"/>
<polygon fill="brown" stroke="brown" points="1146.77,-131.906 1154.79,-124.987 1144.2,-125.392 1146.77,-131.906"/>
</a>
</g>
</g>
<!-- node7&#45;&gt;node12 -->
<g id="edge18" class="edge"><title>node7&#45;&gt;node12</title>
<g id="a_edge18"><a xlink:title="System.Collections.NonGeneric.csproj &#45;&gt; System.Runtime.Extensions.csproj">
<path fill="none" stroke="brown" d="M721.671,-136.995C762.193,-148.193 814.431,-162.63 856.648,-174.297"/>
<polygon fill="brown" stroke="brown" points="855.75,-177.68 866.321,-176.971 857.614,-170.933 855.75,-177.68"/>
</a>
</g>
</g>
<!-- node7&#45;&gt;node9 -->
<g id="edge19" class="edge"><title>node7&#45;&gt;node9</title>
<g id="a_edge19"><a xlink:title="System.Collections.NonGeneric.csproj &#45;&gt; System.Runtime.csproj">
<path fill="none" stroke="brown" d="M773.01,-133.602C879.295,-144.115 1025.99,-150.616 1068,-112.984 1089.35,-93.8564 1054.51,-67.9548 1076,-48.9837 1096.66,-30.7474 1300.97,-33.855 1324,-48.9837 1391.01,-93.0012 1411.71,-194.57 1417.93,-243.977"/>
<polygon fill="brown" stroke="brown" points="1414.46,-244.432 1419.08,-253.967 1421.41,-243.633 1414.46,-244.432"/>
</a>
</g>
</g>
<!-- node10 -->
<g id="node14" class="node"><title>node10</title>
<g id="a_node14"><a xlink:title="G:\Alexander\Work\Projects\others\corefx\src\System.Globalization\ref\System.Globalization.csproj">
<path fill="beige" stroke="brown" stroke-width="2" d="M1007.5,-74.9837C1007.5,-74.9837 857.5,-74.9837 857.5,-74.9837 851.5,-74.9837 845.5,-68.9837 845.5,-62.9837 845.5,-62.9837 845.5,-50.9837 845.5,-50.9837 845.5,-44.9837 851.5,-38.9837 857.5,-38.9837 857.5,-38.9837 1007.5,-38.9837 1007.5,-38.9837 1013.5,-38.9837 1019.5,-44.9837 1019.5,-50.9837 1019.5,-50.9837 1019.5,-62.9837 1019.5,-62.9837 1019.5,-68.9837 1013.5,-74.9837 1007.5,-74.9837"/>
<text text-anchor="middle" x="932.5" y="-53.2837" font-family="Times New Roman,serif" font-size="14.00">System.Globalization.csproj</text>
</a>
</g>
</g>
<!-- node7&#45;&gt;node10 -->
<g id="edge20" class="edge"><title>node7&#45;&gt;node10</title>
<g id="a_edge20"><a xlink:title="System.Collections.NonGeneric.csproj &#45;&gt; System.Globalization.csproj">
<path fill="none" stroke="brown" d="M736.411,-100.967C769.319,-93.5481 807.599,-84.9177 841.491,-77.2766"/>
<polygon fill="brown" stroke="brown" points="842.405,-80.6586 851.39,-75.0449 840.865,-73.83 842.405,-80.6586"/>
</a>
</g>
</g>
<!-- node1&#45;&gt;node9 -->
<g id="edge4" class="edge"><title>node1&#45;&gt;node9</title>
<g id="a_edge4"><a xlink:title="System.Security.Principal.csproj &#45;&gt; System.Runtime.csproj">
<path fill="none" stroke="brown" d="M1226.13,-125.044C1251.1,-143.068 1290.41,-171.65 1324,-196.984 1346.14,-213.678 1370.81,-232.869 1389.67,-247.659"/>
<polygon fill="brown" stroke="brown" points="1387.61,-250.489 1397.64,-253.914 1391.93,-244.984 1387.61,-250.489"/>
</a>
</g>
</g>
<!-- node2 -->
<g id="node6" class="node"><title>node2</title>
<g id="a_node6"><a xlink:title="G:\Alexander\Work\Projects\others\corefx\src\Microsoft.Win32.Primitives\ref\Microsoft.Win32.Primitives.csproj">
<path fill="beige" stroke="brown" stroke-width="2" d="M748.5,-352.984C748.5,-352.984 562.5,-352.984 562.5,-352.984 556.5,-352.984 550.5,-346.984 550.5,-340.984 550.5,-340.984 550.5,-328.984 550.5,-328.984 550.5,-322.984 556.5,-316.984 562.5,-316.984 562.5,-316.984 748.5,-316.984 748.5,-316.984 754.5,-316.984 760.5,-322.984 760.5,-328.984 760.5,-328.984 760.5,-340.984 760.5,-340.984 760.5,-346.984 754.5,-352.984 748.5,-352.984"/>
<text text-anchor="middle" x="655.5" y="-331.284" font-family="Times New Roman,serif" font-size="14.00">Microsoft.Win32.Primitives.csproj</text>
</a>
</g>
</g>
<!-- node2&#45;&gt;node9 -->
<g id="edge5" class="edge"><title>node2&#45;&gt;node9</title>
<g id="a_edge5"><a xlink:title="Microsoft.Win32.Primitives.csproj &#45;&gt; System.Runtime.csproj">
<path fill="none" stroke="brown" d="M760.889,-350.192C867.865,-363.197 1024.51,-374.237 1068,-334.984 1080.93,-323.308 1063.07,-268.659 1076,-256.984 1113.1,-223.491 1248.39,-240.075 1337.98,-255.657"/>
<polygon fill="brown" stroke="brown" points="1337.39,-259.109 1347.85,-257.403 1338.61,-252.216 1337.39,-259.109"/>
</a>
</g>
</g>
<!-- node4 -->
<g id="node7" class="node"><title>node4</title>
<g id="a_node7"><a xlink:title="G:\Alexander\Work\Projects\others\corefx\src\System.Runtime.InteropServices\ref\System.Runtime.InteropServices.csproj">
<path fill="beige" stroke="brown" stroke-width="2" d="M1040,-469.984C1040,-469.984 825,-469.984 825,-469.984 819,-469.984 813,-463.984 813,-457.984 813,-457.984 813,-445.984 813,-445.984 813,-439.984 819,-433.984 825,-433.984 825,-433.984 1040,-433.984 1040,-433.984 1046,-433.984 1052,-439.984 1052,-445.984 1052,-445.984 1052,-457.984 1052,-457.984 1052,-463.984 1046,-469.984 1040,-469.984"/>
<text text-anchor="middle" x="932.5" y="-448.284" font-family="Times New Roman,serif" font-size="14.00">System.Runtime.InteropServices.csproj</text>
</a>
</g>
</g>
<!-- node4&#45;&gt;node9 -->
<g id="edge9" class="edge"><title>node4&#45;&gt;node9</title>
<g id="a_edge9"><a xlink:title="System.Runtime.InteropServices.csproj &#45;&gt; System.Runtime.csproj">
<path fill="none" stroke="brown" d="M1012.99,-433.909C1034.08,-425.272 1054.66,-412.582 1068,-393.984 1080.86,-376.048 1060.28,-310.481 1076,-294.984 1094.22,-277.014 1241.44,-272.784 1337.44,-271.959"/>
<polygon fill="brown" stroke="brown" points="1337.75,-275.457 1347.72,-271.882 1337.7,-268.457 1337.75,-275.457"/>
</a>
</g>
</g>
<!-- node11 -->
<g id="node8" class="node"><title>node11</title>
<g id="a_node8"><a xlink:title="G:\Alexander\Work\Projects\others\corefx\src\System.Reflection.Primitives\ref\System.Reflection.Primitives.csproj">
<path fill="beige" stroke="brown" stroke-width="2" d="M1296,-342.984C1296,-342.984 1104,-342.984 1104,-342.984 1098,-342.984 1092,-336.984 1092,-330.984 1092,-330.984 1092,-318.984 1092,-318.984 1092,-312.984 1098,-306.984 1104,-306.984 1104,-306.984 1296,-306.984 1296,-306.984 1302,-306.984 1308,-312.984 1308,-318.984 1308,-318.984 1308,-330.984 1308,-330.984 1308,-336.984 1302,-342.984 1296,-342.984"/>
<text text-anchor="middle" x="1200" y="-321.284" font-family="Times New Roman,serif" font-size="14.00">System.Reflection.Primitives.csproj</text>
</a>
</g>
</g>
<!-- node4&#45;&gt;node11 -->
<g id="edge6" class="edge"><title>node4&#45;&gt;node11</title>
<g id="a_edge6"><a xlink:title="System.Runtime.InteropServices.csproj &#45;&gt; System.Reflection.Primitives.csproj">
<path fill="none" stroke="brown" d="M977.805,-433.898C1004.22,-422.863 1038.29,-408.188 1068,-393.984 1098.36,-379.468 1131.93,-361.753 1157.49,-347.907"/>
<polygon fill="brown" stroke="brown" points="1159.41,-350.847 1166.52,-342.994 1156.06,-344.698 1159.41,-350.847"/>
</a>
</g>
</g>
<!-- node8 -->
<g id="node9" class="node"><title>node8</title>
<g id="a_node9"><a xlink:title="G:\Alexander\Work\Projects\others\corefx\src\System.Reflection\ref\System.Reflection.csproj">
<path fill="beige" stroke="brown" stroke-width="2" d="M1267,-470.984C1267,-470.984 1133,-470.984 1133,-470.984 1127,-470.984 1121,-464.984 1121,-458.984 1121,-458.984 1121,-446.984 1121,-446.984 1121,-440.984 1127,-434.984 1133,-434.984 1133,-434.984 1267,-434.984 1267,-434.984 1273,-434.984 1279,-440.984 1279,-446.984 1279,-446.984 1279,-458.984 1279,-458.984 1279,-464.984 1273,-470.984 1267,-470.984"/>
<text text-anchor="middle" x="1200" y="-449.284" font-family="Times New Roman,serif" font-size="14.00">System.Reflection.csproj</text>
</a>
</g>
</g>
<!-- node4&#45;&gt;node8 -->
<g id="edge7" class="edge"><title>node4&#45;&gt;node8</title>
<g id="a_edge7"><a xlink:title="System.Runtime.InteropServices.csproj &#45;&gt; System.Reflection.csproj">
<path fill="none" stroke="brown" d="M1052.27,-452.431C1071.84,-452.505 1091.82,-452.58 1110.49,-452.65"/>
<polygon fill="brown" stroke="brown" points="1110.7,-456.151 1120.71,-452.689 1110.72,-449.151 1110.7,-456.151"/>
</a>
</g>
</g>
<!-- node13 -->
<g id="node10" class="node"><title>node13</title>
<g id="a_node10"><a xlink:title="G:\Alexander\Work\Projects\others\corefx\src\System.Runtime.Handles\ref\System.Runtime.Handles.csproj">
<path fill="beige" stroke="brown" stroke-width="2" d="M1286,-598.984C1286,-598.984 1114,-598.984 1114,-598.984 1108,-598.984 1102,-592.984 1102,-586.984 1102,-586.984 1102,-574.984 1102,-574.984 1102,-568.984 1108,-562.984 1114,-562.984 1114,-562.984 1286,-562.984 1286,-562.984 1292,-562.984 1298,-568.984 1298,-574.984 1298,-574.984 1298,-586.984 1298,-586.984 1298,-592.984 1292,-598.984 1286,-598.984"/>
<text text-anchor="middle" x="1200" y="-577.284" font-family="Times New Roman,serif" font-size="14.00">System.Runtime.Handles.csproj</text>
</a>
</g>
</g>
<!-- node4&#45;&gt;node13 -->
<g id="edge8" class="edge"><title>node4&#45;&gt;node13</title>
<g id="a_edge8"><a xlink:title="System.Runtime.InteropServices.csproj &#45;&gt; System.Runtime.Handles.csproj">
<path fill="none" stroke="brown" d="M970.696,-470.056C1018.26,-493.165 1100.63,-533.187 1152.34,-558.314"/>
<polygon fill="brown" stroke="brown" points="1151.1,-561.603 1161.63,-562.825 1154.16,-555.307 1151.1,-561.603"/>
</a>
</g>
</g>
<!-- node11&#45;&gt;node9 -->
<g id="edge22" class="edge"><title>node11&#45;&gt;node9</title>
<g id="a_edge22"><a xlink:title="System.Reflection.Primitives.csproj &#45;&gt; System.Runtime.csproj">
<path fill="none" stroke="brown" d="M1275.62,-306.966C1295.7,-302.118 1317.53,-296.846 1338.01,-291.901"/>
<polygon fill="brown" stroke="brown" points="1339.05,-295.252 1347.95,-289.503 1337.4,-288.448 1339.05,-295.252"/>
</a>
</g>
</g>
<!-- node8&#45;&gt;node9 -->
<g id="edge34" class="edge"><title>node8&#45;&gt;node9</title>
<g id="a_edge34"><a xlink:title="System.Reflection.csproj &#45;&gt; System.Runtime.csproj">
<path fill="none" stroke="brown" d="M1238.77,-434.869C1264.18,-421.752 1297.71,-402.584 1324,-380.984 1354.09,-356.26 1382.91,-321.812 1401.1,-298.302"/>
<polygon fill="brown" stroke="brown" points="1404.02,-300.247 1407.3,-290.173 1398.45,-296.001 1404.02,-300.247"/>
</a>
</g>
</g>
<!-- node13&#45;&gt;node9 -->
<g id="edge25" class="edge"><title>node13&#45;&gt;node9</title>
<g id="a_edge25"><a xlink:title="System.Runtime.Handles.csproj &#45;&gt; System.Runtime.csproj">
<path fill="none" stroke="brown" d="M1246.95,-562.937C1272.51,-550.921 1303.26,-532.921 1324,-508.984 1378.63,-445.928 1405.04,-347.846 1415.23,-300.059"/>
<polygon fill="brown" stroke="brown" points="1418.69,-300.617 1417.27,-290.117 1411.84,-299.21 1418.69,-300.617"/>
</a>
</g>
</g>
<!-- node3 -->
<g id="node11" class="node"><title>node3</title>
<g id="a_node11"><a xlink:title="G:\Alexander\Work\Projects\others\corefx\src\System.Net.Primitives\ref\System.Net.Primitives.csproj">
<path fill="beige" stroke="brown" stroke-width="2" d="M460.5,-446.984C460.5,-446.984 305.5,-446.984 305.5,-446.984 299.5,-446.984 293.5,-440.984 293.5,-434.984 293.5,-434.984 293.5,-422.984 293.5,-422.984 293.5,-416.984 299.5,-410.984 305.5,-410.984 305.5,-410.984 460.5,-410.984 460.5,-410.984 466.5,-410.984 472.5,-416.984 472.5,-422.984 472.5,-422.984 472.5,-434.984 472.5,-434.984 472.5,-440.984 466.5,-446.984 460.5,-446.984"/>
<text text-anchor="middle" x="383" y="-425.284" font-family="Times New Roman,serif" font-size="14.00">System.Net.Primitives.csproj</text>
</a>
</g>
</g>
<!-- node3&#45;&gt;node9 -->
<g id="edge13" class="edge"><title>node3&#45;&gt;node9</title>
<g id="a_edge13"><a xlink:title="System.Net.Primitives.csproj &#45;&gt; System.Runtime.csproj">
<path fill="none" stroke="brown" d="M472.753,-425.49C648.505,-417.687 1027.43,-396.127 1068,-353.984 1081.16,-340.316 1061.97,-281.755 1076,-268.984 1094.88,-251.794 1241.88,-258.874 1337.66,-265.493"/>
<polygon fill="brown" stroke="brown" points="1337.7,-269.004 1347.92,-266.213 1338.19,-262.021 1337.7,-269.004"/>
</a>
</g>
</g>
<!-- node3&#45;&gt;node2 -->
<g id="edge10" class="edge"><title>node3&#45;&gt;node2</title>
<g id="a_edge10"><a xlink:title="System.Net.Primitives.csproj &#45;&gt; Microsoft.Win32.Primitives.csproj">
<path fill="none" stroke="brown" d="M435.835,-410.971C480.613,-395.41 545.404,-372.895 592.836,-356.412"/>
<polygon fill="brown" stroke="brown" points="594.083,-359.684 602.38,-353.096 591.785,-353.072 594.083,-359.684"/>
</a>
</g>
</g>
<!-- node3&#45;&gt;node4 -->
<g id="edge11" class="edge"><title>node3&#45;&gt;node4</title>
<g id="a_edge11"><a xlink:title="System.Net.Primitives.csproj &#45;&gt; System.Runtime.InteropServices.csproj">
<path fill="none" stroke="brown" d="M472.711,-432.866C489.1,-433.576 506.067,-434.307 522,-434.984 615.911,-438.975 721.941,-443.373 802.578,-446.696"/>
<polygon fill="brown" stroke="brown" points="802.646,-450.202 812.782,-447.117 802.934,-443.208 802.646,-450.202"/>
</a>
</g>
</g>
<!-- node3&#45;&gt;node13 -->
<g id="edge14" class="edge"><title>node3&#45;&gt;node13</title>
<g id="a_edge14"><a xlink:title="System.Net.Primitives.csproj &#45;&gt; System.Runtime.Handles.csproj">
<path fill="none" stroke="brown" d="M417.998,-447.094C447.144,-464.186 488.37,-492.329 514,-526.984 520.187,-535.349 513.622,-542.815 522,-548.984 566.616,-581.832 912.03,-583.667 1091.49,-582.343"/>
<polygon fill="brown" stroke="brown" points="1091.77,-585.841 1101.75,-582.262 1091.72,-578.841 1091.77,-585.841"/>
</a>
</g>
</g>
<!-- node5 -->
<g id="node12" class="node"><title>node5</title>
<g id="a_node12"><a xlink:title="G:\Alexander\Work\Projects\others\corefx\src\System.Memory\ref\System.Memory.csproj">
<path fill="beige" stroke="brown" stroke-width="2" d="M717.5,-510.984C717.5,-510.984 593.5,-510.984 593.5,-510.984 587.5,-510.984 581.5,-504.984 581.5,-498.984 581.5,-498.984 581.5,-486.984 581.5,-486.984 581.5,-480.984 587.5,-474.984 593.5,-474.984 593.5,-474.984 717.5,-474.984 717.5,-474.984 723.5,-474.984 729.5,-480.984 729.5,-486.984 729.5,-486.984 729.5,-498.984 729.5,-498.984 729.5,-504.984 723.5,-510.984 717.5,-510.984"/>
<text text-anchor="middle" x="655.5" y="-489.284" font-family="Times New Roman,serif" font-size="14.00">System.Memory.csproj</text>
</a>
</g>
</g>
<!-- node3&#45;&gt;node5 -->
<g id="edge12" class="edge"><title>node3&#45;&gt;node5</title>
<g id="a_edge12"><a xlink:title="System.Net.Primitives.csproj &#45;&gt; System.Memory.csproj">
<path fill="none" stroke="brown" d="M460.43,-447.067C494.988,-455.243 535.91,-464.925 571.246,-473.286"/>
<polygon fill="brown" stroke="brown" points="570.518,-476.71 581.055,-475.607 572.129,-469.898 570.518,-476.71"/>
</a>
</g>
</g>
<!-- node5&#45;&gt;node9 -->
<g id="edge15" class="edge"><title>node5&#45;&gt;node9</title>
<g id="a_edge15"><a xlink:title="System.Memory.csproj &#45;&gt; System.Runtime.csproj">
<path fill="none" stroke="brown" d="M729.936,-504.429C841.952,-522.564 1045.01,-558.366 1068,-582.984 1084.56,-600.715 1057.63,-621.135 1076,-636.984 1159.45,-708.986 1236.67,-704.228 1324,-636.984 1378.19,-595.259 1408.16,-379.014 1417.38,-300.505"/>
<polygon fill="brown" stroke="brown" points="1420.88,-300.707 1418.55,-290.373 1413.93,-299.908 1420.88,-300.707"/>
</a>
</g>
</g>
<!-- node5&#45;&gt;node4 -->
<g id="edge16" class="edge"><title>node5&#45;&gt;node4</title>
<g id="a_edge16"><a xlink:title="System.Memory.csproj &#45;&gt; System.Runtime.InteropServices.csproj">
<path fill="none" stroke="brown" d="M729.834,-482.05C752.378,-478.689 777.89,-474.886 802.999,-471.142"/>
<polygon fill="brown" stroke="brown" points="803.595,-474.592 812.969,-469.656 802.562,-467.669 803.595,-474.592"/>
</a>
</g>
</g>
<!-- node6 -->
<g id="node13" class="node"><title>node6</title>
<g id="a_node13"><a xlink:title="G:\Alexander\Work\Projects\others\corefx\src\System.Text.Encoding\ref\System.Text.Encoding.csproj">
<path fill="beige" stroke="brown" stroke-width="2" d="M1012,-668.984C1012,-668.984 853,-668.984 853,-668.984 847,-668.984 841,-662.984 841,-656.984 841,-656.984 841,-644.984 841,-644.984 841,-638.984 847,-632.984 853,-632.984 853,-632.984 1012,-632.984 1012,-632.984 1018,-632.984 1024,-638.984 1024,-644.984 1024,-644.984 1024,-656.984 1024,-656.984 1024,-662.984 1018,-668.984 1012,-668.984"/>
<text text-anchor="middle" x="932.5" y="-647.284" font-family="Times New Roman,serif" font-size="14.00">System.Text.Encoding.csproj</text>
</a>
</g>
</g>
<!-- node6&#45;&gt;node9 -->
<g id="edge17" class="edge"><title>node6&#45;&gt;node9</title>
<g id="a_edge17"><a xlink:title="System.Text.Encoding.csproj &#45;&gt; System.Runtime.csproj">
<path fill="none" stroke="brown" d="M961.25,-669.089C1030.73,-711.929 1214.44,-809.5 1324,-720.984 1390.3,-667.418 1413.17,-390.131 1418.9,-300.186"/>
<polygon fill="brown" stroke="brown" points="1422.4,-300.37 1419.52,-290.174 1415.41,-299.94 1422.4,-300.37"/>
</a>
</g>
</g>
<!-- node10&#45;&gt;node9 -->
<g id="edge21" class="edge"><title>node10&#45;&gt;node9</title>
<g id="a_edge21"><a xlink:title="System.Globalization.csproj &#45;&gt; System.Runtime.csproj">
<path fill="none" stroke="brown" d="M978.754,-38.9544C1056.61,-11.1466 1217.77,31.9982 1324,-38.9837 1393.67,-85.5396 1413.11,-192.711 1418.48,-243.845"/>
<polygon fill="brown" stroke="brown" points="1415,-244.237 1419.42,-253.864 1421.97,-243.579 1415,-244.237"/>
</a>
</g>
</g>
<!-- node15 -->
<g id="node15" class="node"><title>node15</title>
<g id="a_node15"><a xlink:title="G:\Alexander\Work\Projects\others\corefx\src\System.Net.WebSockets\ref\System.Net.WebSockets.csproj">
<path fill="beige" stroke="brown" stroke-width="2" d="M216,-352.984C216,-352.984 44,-352.984 44,-352.984 38,-352.984 32,-346.984 32,-340.984 32,-340.984 32,-328.984 32,-328.984 32,-322.984 38,-316.984 44,-316.984 44,-316.984 216,-316.984 216,-316.984 222,-316.984 228,-322.984 228,-328.984 228,-328.984 228,-340.984 228,-340.984 228,-346.984 222,-352.984 216,-352.984"/>
<text text-anchor="middle" x="130" y="-331.284" font-family="Times New Roman,serif" font-size="14.00">System.Net.WebSockets.csproj</text>
</a>
</g>
</g>
<!-- node15&#45;&gt;node0 -->
<g id="edge26" class="edge"><title>node15&#45;&gt;node0</title>
<g id="a_edge26"><a xlink:title="System.Net.WebSockets.csproj &#45;&gt; System.Collections.Specialized.csproj">
<path fill="none" stroke="brown" d="M159.793,-316.859C205.346,-288.184 294.031,-232.359 344.498,-200.591"/>
<polygon fill="brown" stroke="brown" points="346.559,-203.429 353.157,-195.14 342.83,-197.505 346.559,-203.429"/>
</a>
</g>
</g>
<!-- node15&#45;&gt;node9 -->
<g id="edge30" class="edge"><title>node15&#45;&gt;node9</title>
<g id="a_edge30"><a xlink:title="System.Net.WebSockets.csproj &#45;&gt; System.Runtime.csproj">
<path fill="none" stroke="brown" d="M228.182,-327.087C307.276,-320.767 421.815,-311.854 522,-304.984 582.635,-300.825 1021.98,-311.685 1068,-271.984 1081.07,-260.71 1062.6,-244.858 1076,-233.984 1118.8,-199.26 1269.86,-223.707 1324,-233.984 1340.99,-237.209 1358.82,-243.364 1374.46,-249.797"/>
<polygon fill="brown" stroke="brown" points="1373.32,-253.115 1383.9,-253.814 1376.07,-246.675 1373.32,-253.115"/>
</a>
</g>
</g>
<!-- node15&#45;&gt;node1 -->
<g id="edge27" class="edge"><title>node15&#45;&gt;node1</title>
<g id="a_edge27"><a xlink:title="System.Net.WebSockets.csproj &#45;&gt; System.Security.Principal.csproj">
<path fill="none" stroke="brown" d="M167.337,-316.868C190.86,-306.081 222.498,-293.299 252,-286.984 340.745,-267.988 998.115,-308.885 1068,-250.984 1079.95,-241.08 1068.07,-230.33 1076,-216.984 1097.22,-181.272 1133.86,-150.725 1161.65,-130.949"/>
<polygon fill="brown" stroke="brown" points="1163.75,-133.749 1169.96,-125.164 1159.75,-128.004 1163.75,-133.749"/>
</a>
</g>
</g>
<!-- node15&#45;&gt;node2 -->
<g id="edge28" class="edge"><title>node15&#45;&gt;node2</title>
<g id="a_edge28"><a xlink:title="System.Net.WebSockets.csproj &#45;&gt; Microsoft.Win32.Primitives.csproj">
<path fill="none" stroke="brown" d="M228.239,-334.984C316.538,-334.984 446.838,-334.984 540.11,-334.984"/>
<polygon fill="brown" stroke="brown" points="540.155,-338.484 550.155,-334.984 540.155,-331.484 540.155,-338.484"/>
</a>
</g>
</g>
<!-- node15&#45;&gt;node3 -->
<g id="edge29" class="edge"><title>node15&#45;&gt;node3</title>
<g id="a_edge29"><a xlink:title="System.Net.WebSockets.csproj &#45;&gt; System.Net.Primitives.csproj">
<path fill="none" stroke="brown" d="M179.098,-352.997C220.475,-368.492 280.267,-390.884 324.229,-407.348"/>
<polygon fill="brown" stroke="brown" points="323.045,-410.642 333.637,-410.872 325.5,-404.087 323.045,-410.642"/>
</a>
</g>
</g>
<!-- node14 -->
<g id="node16" class="node"><title>node14</title>
<g id="a_node16"><a xlink:title="G:\Alexander\Work\Projects\others\corefx\src\System.Threading.Tasks\ref\System.Threading.Tasks.csproj">
<path fill="beige" stroke="brown" stroke-width="2" d="M468,-574.984C468,-574.984 298,-574.984 298,-574.984 292,-574.984 286,-568.984 286,-562.984 286,-562.984 286,-550.984 286,-550.984 286,-544.984 292,-538.984 298,-538.984 298,-538.984 468,-538.984 468,-538.984 474,-538.984 480,-544.984 480,-550.984 480,-550.984 480,-562.984 480,-562.984 480,-568.984 474,-574.984 468,-574.984"/>
<text text-anchor="middle" x="383" y="-553.284" font-family="Times New Roman,serif" font-size="14.00">System.Threading.Tasks.csproj</text>
</a>
</g>
</g>
<!-- node15&#45;&gt;node14 -->
<g id="edge31" class="edge"><title>node15&#45;&gt;node14</title>
<g id="a_edge31"><a xlink:title="System.Net.WebSockets.csproj &#45;&gt; System.Threading.Tasks.csproj">
<path fill="none" stroke="brown" d="M142.193,-353.028C161.616,-383.247 204.102,-444.73 252,-484.984 275.748,-504.941 305.864,-522.034 331.129,-534.551"/>
<polygon fill="brown" stroke="brown" points="329.673,-537.734 340.197,-538.952 332.729,-531.437 329.673,-537.734"/>
</a>
</g>
</g>
<!-- node16 -->
<g id="node17" class="node"><title>node16</title>
<g id="a_node17"><a xlink:title="G:\Alexander\Work\Projects\others\corefx\src\System.IO\ref\System.IO.csproj">
<path fill="beige" stroke="brown" stroke-width="2" d="M701.5,-668.984C701.5,-668.984 609.5,-668.984 609.5,-668.984 603.5,-668.984 597.5,-662.984 597.5,-656.984 597.5,-656.984 597.5,-644.984 597.5,-644.984 597.5,-638.984 603.5,-632.984 609.5,-632.984 609.5,-632.984 701.5,-632.984 701.5,-632.984 707.5,-632.984 713.5,-638.984 713.5,-644.984 713.5,-644.984 713.5,-656.984 713.5,-656.984 713.5,-662.984 707.5,-668.984 701.5,-668.984"/>
<text text-anchor="middle" x="655.5" y="-647.284" font-family="Times New Roman,serif" font-size="14.00">System.IO.csproj</text>
</a>
</g>
</g>
<!-- node15&#45;&gt;node16 -->
<g id="edge32" class="edge"><title>node15&#45;&gt;node16</title>
<g id="a_edge32"><a xlink:title="System.Net.WebSockets.csproj &#45;&gt; System.IO.csproj">
<path fill="none" stroke="brown" d="M132.731,-353.126C138.644,-403.984 162.926,-548.42 252,-612.984 350.808,-684.604 501.061,-676.468 587.303,-663.876"/>
<polygon fill="brown" stroke="brown" points="587.88,-667.329 597.239,-662.364 586.826,-660.408 587.88,-667.329"/>
</a>
</g>
</g>
<!-- node14&#45;&gt;node9 -->
<g id="edge33" class="edge"><title>node14&#45;&gt;node9</title>
<g id="a_edge33"><a xlink:title="System.Threading.Tasks.csproj &#45;&gt; System.Runtime.csproj">
<path fill="none" stroke="brown" d="M480.092,-566.612C494.14,-567.852 508.438,-569.022 522,-569.984 522,-569.984 1068,-595.984 1068,-595.984 1079.74,-607.002 1064,-657.247 1076,-667.984 1117.06,-704.738 1280.66,-702.029 1324,-667.984 1382.64,-621.918 1410.13,-383.293 1418.02,-300.396"/>
<polygon fill="brown" stroke="brown" points="1421.5,-300.702 1418.94,-290.422 1414.53,-300.056 1421.5,-300.702"/>
</a>
</g>
</g>
<!-- node16&#45;&gt;node12 -->
<g id="edge35" class="edge"><title>node16&#45;&gt;node12</title>
<g id="a_edge35"><a xlink:title="System.IO.csproj &#45;&gt; System.Runtime.Extensions.csproj">
<path fill="none" stroke="brown" d="M695.009,-632.946C726.296,-616.029 768.484,-587.557 789,-548.984 802.279,-524.017 788.673,-449.008 797,-421.984 821.494,-342.492 878.91,-261.56 910.221,-221.225"/>
<polygon fill="brown" stroke="brown" points="913.061,-223.276 916.485,-213.249 907.556,-218.952 913.061,-223.276"/>
</a>
</g>
</g>
<!-- node16&#45;&gt;node9 -->
<g id="edge36" class="edge"><title>node16&#45;&gt;node9</title>
<g id="a_edge36"><a xlink:title="System.IO.csproj &#45;&gt; System.Runtime.csproj">
<path fill="none" stroke="brown" d="M713.595,-637.106C814.247,-614.169 1017.41,-575.202 1068,-620.984 1081.25,-632.972 1062.75,-688.995 1076,-700.984 1096.43,-719.474 1302.48,-718.198 1324,-700.984 1387.38,-650.275 1412.05,-387.788 1418.59,-300.354"/>
<polygon fill="brown" stroke="brown" points="1422.1,-300.353 1419.33,-290.126 1415.12,-299.847 1422.1,-300.353"/>
</a>
</g>
</g>
<!-- node16&#45;&gt;node6 -->
<g id="edge37" class="edge"><title>node16&#45;&gt;node6</title>
<g id="a_edge37"><a xlink:title="System.IO.csproj &#45;&gt; System.Text.Encoding.csproj">
<path fill="none" stroke="brown" d="M713.814,-650.984C747.626,-650.984 791.383,-650.984 830.788,-650.984"/>
<polygon fill="brown" stroke="brown" points="830.97,-654.484 840.97,-650.984 830.97,-647.484 830.97,-654.484"/>
</a>
</g>
</g>
</g>
</svg>
