<?xml version="1.0" encoding="UTF-8" standalone="no"?>
<!DOCTYPE svg PUBLIC "-//W3C//DTD SVG 1.1//EN"
 "http://www.w3.org/Graphics/SVG/1.1/DTD/svg11.dtd">
<!-- Generated by graphviz version 2.38.0 (20140413.2041)
 -->
<!-- Title: Dependencies Pages: 1 -->
<svg width="1415pt" height="464pt"
 viewBox="0.00 0.00 1415.00 464.00" xmlns="http://www.w3.org/2000/svg" xmlns:xlink="http://www.w3.org/1999/xlink">
<g id="graph0" class="graph" transform="scale(1 1) rotate(0) translate(4 460)">
<title>Dependencies</title>
<polygon fill="white" stroke="none" points="-4,4 -4,-460 1411,-460 1411,4 -4,4"/>
<text text-anchor="middle" x="703.5" y="-439.2" font-family="Times New Roman,serif" font-size="16.00" fill="darkgreen">Dependencies</text>
<g id="clust1" class="cluster"><title>cluster_G__Alexander_Work_Projects_others_GraphEngine_src_Modules_Trinity_FFI</title>
<polygon fill="none" stroke="grey" stroke-width="2" stroke-dasharray="1,5" points="227,-8 227,-386 1399,-386 1399,-8 227,-8"/>
<text text-anchor="middle" x="813" y="-369.2" font-family="Times New Roman,serif" font-size="16.00" fill="darkgreen">G:/Alexander/Work/Projects/others/GraphEngine/src/Modules/Trinity.FFI/</text>
</g>
<g id="clust2" class="cluster"><title>cluster_G__Alexander_Work_Projects_others_GraphEngine_src_Modules_Trinity_FFI_Trinity_FFI_AutoCode</title>
<polygon fill="none" stroke="grey" stroke-width="2" stroke-dasharray="1,5" points="732,-274 732,-352 927,-352 927,-274 732,-274"/>
<text text-anchor="middle" x="829.5" y="-335.2" font-family="Times New Roman,serif" font-size="16.00" fill="darkgreen">Trinity.FFI.AutoCode/</text>
</g>
<g id="clust3" class="cluster"><title>cluster_G__Alexander_Work_Projects_others_GraphEngine_src_Modules_Trinity_FFI_Trinity_FFI_Metagen_UnitTests</title>
<polygon fill="none" stroke="grey" stroke-width="2" stroke-dasharray="1,5" points="947,-274 947,-352 1189,-352 1189,-274 947,-274"/>
<text text-anchor="middle" x="1068" y="-335.2" font-family="Times New Roman,serif" font-size="16.00" fill="darkgreen">Trinity.FFI.Metagen.UnitTests/</text>
</g>
<g id="clust4" class="cluster"><title>cluster_G__Alexander_Work_Projects_others_GraphEngine_src_Modules_Trinity_FFI_Trinity_FFI_Metagen</title>
<polygon fill="none" stroke="grey" stroke-width="2" stroke-dasharray="1,5" points="1209,-231 1209,-309 1391,-309 1391,-231 1209,-231"/>
<text text-anchor="middle" x="1300" y="-292.2" font-family="Times New Roman,serif" font-size="16.00" fill="darkgreen">Trinity.FFI.Metagen/</text>
</g>
<g id="clust5" class="cluster"><title>cluster_G__Alexander_Work_Projects_others_GraphEngine_src_Modules_Trinity_FFI_Trinity_FFI_Native</title>
<polygon fill="none" stroke="grey" stroke-width="2" stroke-dasharray="1,5" points="262,-274 262,-352 442,-352 442,-274 262,-274"/>
<text text-anchor="middle" x="352" y="-335.2" font-family="Times New Roman,serif" font-size="16.00" fill="darkgreen">Trinity.FFI.Native/</text>
</g>
<g id="clust6" class="cluster"><title>cluster_G__Alexander_Work_Projects_others_GraphEngine_src_Modules_Trinity_FFI_Trinity_FFI_Playground</title>
<polygon fill="none" stroke="grey" stroke-width="2" stroke-dasharray="1,5" points="251.5,-188 251.5,-266 452.5,-266 452.5,-188 251.5,-188"/>
<text text-anchor="middle" x="352" y="-249.2" font-family="Times New Roman,serif" font-size="16.00" fill="darkgreen">Trinity.FFI.Playground/</text>
</g>
<g id="clust7" class="cluster"><title>cluster_G__Alexander_Work_Projects_others_GraphEngine_src_Modules_Trinity_FFI_Trinity_FFI_Python_UnitTests</title>
<polygon fill="none" stroke="grey" stroke-width="2" stroke-dasharray="1,5" points="235,-102 235,-180 469,-180 469,-102 235,-102"/>
<text text-anchor="middle" x="352" y="-163.2" font-family="Times New Roman,serif" font-size="16.00" fill="darkgreen">Trinity.FFI.Python.UnitTests/</text>
</g>
<g id="clust8" class="cluster"><title>cluster_G__Alexander_Work_Projects_others_GraphEngine_src_Modules_Trinity_FFI_Trinity_FFI_Python</title>
<polygon fill="none" stroke="grey" stroke-width="2" stroke-dasharray="1,5" points="741,-188 741,-266 918,-266 918,-188 741,-188"/>
<text text-anchor="middle" x="829.5" y="-249.2" font-family="Times New Roman,serif" font-size="16.00" fill="darkgreen">Trinity.FFI.Python/</text>
</g>
<g id="clust9" class="cluster"><title>cluster_G__Alexander_Work_Projects_others_GraphEngine_src_Modules_Trinity_FFI_Trinity_FFI_UnitTests</title>
<polygon fill="none" stroke="grey" stroke-width="2" stroke-dasharray="1,5" points="256.5,-16 256.5,-94 447.5,-94 447.5,-16 256.5,-16"/>
<text text-anchor="middle" x="352" y="-77.2" font-family="Times New Roman,serif" font-size="16.00" fill="darkgreen">Trinity.FFI.UnitTests/</text>
</g>
<g id="clust10" class="cluster"><title>cluster_G__Alexander_Work_Projects_others_GraphEngine_src_Modules_Trinity_FFI_Trinity_FFI</title>
<polygon fill="none" stroke="grey" stroke-width="2" stroke-dasharray="1,5" points="1001.5,-188 1001.5,-266 1134.5,-266 1134.5,-188 1001.5,-188"/>
<text text-anchor="middle" x="1068" y="-249.2" font-family="Times New Roman,serif" font-size="16.00" fill="darkgreen">Trinity.FFI/</text>
</g>
<!-- node0 -->
<g id="node1" class="node"><title>node0</title>
<g id="a_node1"><a xlink:title="G:\Alexander\Work\Projects\othersDependenciesraphEngine\src\Modules\Trinity.FFI\Trinity.FFI.Playground\Trinity.FFI.Playground.csproj">
<path fill="beige" stroke="green" stroke-width="2" d="M432.5,-232C432.5,-232 271.5,-232 271.5,-232 265.5,-232 259.5,-226 259.5,-220 259.5,-220 259.5,-208 259.5,-208 259.5,-202 265.5,-196 271.5,-196 271.5,-196 432.5,-196 432.5,-196 438.5,-196 444.5,-202 444.5,-208 444.5,-208 444.5,-220 444.5,-220 444.5,-226 438.5,-232 432.5,-232"/>
<text text-anchor="middle" x="352" y="-210.3" font-family="Times New Roman,serif" font-size="14.00">Trinity.FFI.Playground.csproj</text>
</a>
</g>
</g>
<!-- node7 -->
<g id="node2" class="node"><title>node7</title>
<g id="a_node2"><a xlink:title="G:\Alexander\Work\Projects\othersDependenciesraphEngine\src\Modules\Trinity.FFI\Trinity.FFI.Python\Trinity.FFI.Python.csproj">
<path fill="beige" stroke="brown" stroke-width="2" d="M898,-232C898,-232 761,-232 761,-232 755,-232 749,-226 749,-220 749,-220 749,-208 749,-208 749,-202 755,-196 761,-196 761,-196 898,-196 898,-196 904,-196 910,-202 910,-208 910,-208 910,-220 910,-220 910,-226 904,-232 898,-232"/>
<text text-anchor="middle" x="829.5" y="-210.3" font-family="Times New Roman,serif" font-size="14.00">Trinity.FFI.Python.csproj</text>
</a>
</g>
</g>
<!-- node0&#45;&gt;node7 -->
<g id="edge1" class="edge"><title>node0&#45;&gt;node7</title>
<g id="a_edge1"><a xlink:title="Trinity.FFI.Playground.csproj &#45;&gt; Trinity.FFI.Python.csproj">
<path fill="none" stroke="brown" d="M444.681,-214C529.482,-214 654.763,-214 738.895,-214"/>
<polygon fill="brown" stroke="brown" points="738.946,-217.5 748.945,-214 738.945,-210.5 738.946,-217.5"/>
</a>
</g>
</g>
<!-- node5 -->
<g id="node4" class="node"><title>node5</title>
<g id="a_node4"><a xlink:title="G:\Alexander\Work\Projects\othersDependenciesraphEngine\src\Modules\Trinity.FFI\Trinity.FFI\Trinity.FFI.csproj">
<path fill="beige" stroke="brown" stroke-width="2" d="M1114.5,-232C1114.5,-232 1021.5,-232 1021.5,-232 1015.5,-232 1009.5,-226 1009.5,-220 1009.5,-220 1009.5,-208 1009.5,-208 1009.5,-202 1015.5,-196 1021.5,-196 1021.5,-196 1114.5,-196 1114.5,-196 1120.5,-196 1126.5,-202 1126.5,-208 1126.5,-208 1126.5,-220 1126.5,-220 1126.5,-226 1120.5,-232 1114.5,-232"/>
<text text-anchor="middle" x="1068" y="-210.3" font-family="Times New Roman,serif" font-size="14.00">Trinity.FFI.csproj</text>
</a>
</g>
</g>
<!-- node7&#45;&gt;node5 -->
<g id="edge4" class="edge"><title>node7&#45;&gt;node5</title>
<g id="a_edge4"><a xlink:title="Trinity.FFI.Python.csproj &#45;&gt; Trinity.FFI.csproj">
<path fill="none" stroke="brown" d="M910.238,-214C939.141,-214 971.489,-214 999.26,-214"/>
<polygon fill="brown" stroke="brown" points="999.27,-217.5 1009.27,-214 999.27,-210.5 999.27,-217.5"/>
</a>
</g>
</g>
<!-- node3 -->
<g id="node3" class="node"><title>node3</title>
<g id="a_node3"><a xlink:title="G:\Alexander\Work\Projects\othersDependenciesraphEngine\src\Modules\Trinity.FFI\Trinity.FFI.AutoCode\Trinity.FFI.AutoCode.csproj">
<path fill="beige" stroke="green" stroke-width="2" d="M907,-318C907,-318 752,-318 752,-318 746,-318 740,-312 740,-306 740,-306 740,-294 740,-294 740,-288 746,-282 752,-282 752,-282 907,-282 907,-282 913,-282 919,-288 919,-294 919,-294 919,-306 919,-306 919,-312 913,-318 907,-318"/>
<text text-anchor="middle" x="829.5" y="-296.3" font-family="Times New Roman,serif" font-size="14.00">Trinity.FFI.AutoCode.csproj</text>
</a>
</g>
</g>
<!-- node3&#45;&gt;node5 -->
<g id="edge2" class="edge"><title>node3&#45;&gt;node5</title>
<g id="a_edge2"><a xlink:title="Trinity.FFI.AutoCode.csproj &#45;&gt; Trinity.FFI.csproj">
<path fill="none" stroke="brown" d="M891.228,-281.925C903.144,-278.152 915.509,-274.077 927,-270 956.443,-259.553 988.861,-246.676 1015.08,-235.905"/>
<polygon fill="brown" stroke="brown" points="1016.53,-239.091 1024.44,-232.041 1013.86,-232.621 1016.53,-239.091"/>
</a>
</g>
</g>
<!-- node8 -->
<g id="node5" class="node"><title>node8</title>
<g id="a_node5"><a xlink:title="G:\Alexander\Work\Projects\othersDependenciesraphEngine\src\Modules\Trinity.FFI\Trinity.FFI.Metagen\Trinity.FFI.Metagen.fsproj">
<path fill="beige" stroke="cornflowerblue" stroke-width="2" d="M1371,-275C1371,-275 1229,-275 1229,-275 1223,-275 1217,-269 1217,-263 1217,-263 1217,-251 1217,-251 1217,-245 1223,-239 1229,-239 1229,-239 1371,-239 1371,-239 1377,-239 1383,-245 1383,-251 1383,-251 1383,-263 1383,-263 1383,-269 1377,-275 1371,-275"/>
<text text-anchor="middle" x="1300" y="-253.3" font-family="Times New Roman,serif" font-size="14.00">Trinity.FFI.Metagen.fsproj</text>
</a>
</g>
</g>
<!-- node5&#45;&gt;node8 -->
<g id="edge3" class="edge"><title>node5&#45;&gt;node8</title>
<g id="a_edge3"><a xlink:title="Trinity.FFI.csproj &#45;&gt; Trinity.FFI.Metagen.fsproj">
<path fill="none" stroke="cornflowerblue" d="M1126.74,-224.795C1151.04,-229.337 1179.91,-234.735 1207.01,-239.801"/>
<polygon fill="cornflowerblue" stroke="cornflowerblue" points="1206.42,-243.253 1216.9,-241.65 1207.71,-236.372 1206.42,-243.253"/>
</a>
</g>
</g>
<!-- node9 -->
<g id="node6" class="node"><title>node9</title>
<g id="a_node6"><a xlink:title="G:\Alexander\Work\Projects\othersDependenciesraphEngine\src\Modules\Trinity.FFI\Trinity.FFI.Metagen.UnitTests\Trinity.FFI.Metagen.UnitTests.csproj">
<path fill="beige" stroke="brown" stroke-width="2" d="M1169,-318C1169,-318 967,-318 967,-318 961,-318 955,-312 955,-306 955,-306 955,-294 955,-294 955,-288 961,-282 967,-282 967,-282 1169,-282 1169,-282 1175,-282 1181,-288 1181,-294 1181,-294 1181,-306 1181,-306 1181,-312 1175,-318 1169,-318"/>
<text text-anchor="middle" x="1068" y="-296.3" font-family="Times New Roman,serif" font-size="14.00">Trinity.FFI.Metagen.UnitTests.csproj</text>
</a>
</g>
</g>
<!-- node9&#45;&gt;node8 -->
<g id="edge5" class="edge"><title>node9&#45;&gt;node8</title>
<g id="a_edge5"><a xlink:title="Trinity.FFI.Metagen.UnitTests.csproj &#45;&gt; Trinity.FFI.Metagen.fsproj">
<path fill="none" stroke="cornflowerblue" d="M1165.54,-281.951C1179.29,-279.38 1193.4,-276.742 1207.06,-274.188"/>
<polygon fill="cornflowerblue" stroke="cornflowerblue" points="1207.73,-277.624 1216.92,-272.346 1206.44,-270.743 1207.73,-277.624"/>
</a>
</g>
</g>
<!-- node2 -->
<g id="node7" class="node"><title>node2</title>
<g id="a_node7"><a xlink:title="G:\Alexander\Work\Projects\othersDependenciesraphEngine\src\Modules\Trinity.FFI\Trinity.FFI.Native\Trinity.FFI.Native.vcxproj">
<path fill="beige" stroke="blue" stroke-width="2" d="M422,-318C422,-318 282,-318 282,-318 276,-318 270,-312 270,-306 270,-306 270,-294 270,-294 270,-288 276,-282 282,-282 282,-282 422,-282 422,-282 428,-282 434,-288 434,-294 434,-294 434,-306 434,-306 434,-312 428,-318 422,-318"/>
<text text-anchor="middle" x="352" y="-296.3" font-family="Times New Roman,serif" font-size="14.00">Trinity.FFI.Native.vcxproj</text>
</a>
</g>
</g>
<!-- node6 -->
<g id="node8" class="node"><title>node6</title>
<g id="a_node8"><a xlink:title="G:\Alexander\Work\Projects\othersDependenciesraphEngine\src\Modules\Trinity.FFI\Trinity.FFI.Python.UnitTests\Trinity.FFI.Python.UnitTests.csproj">
<path fill="beige" stroke="brown" stroke-width="2" d="M449,-146C449,-146 255,-146 255,-146 249,-146 243,-140 243,-134 243,-134 243,-122 243,-122 243,-116 249,-110 255,-110 255,-110 449,-110 449,-110 455,-110 461,-116 461,-122 461,-122 461,-134 461,-134 461,-140 455,-146 449,-146"/>
<text text-anchor="middle" x="352" y="-124.3" font-family="Times New Roman,serif" font-size="14.00">Trinity.FFI.Python.UnitTests.csproj</text>
</a>
</g>
</g>
<!-- node4 -->
<g id="node9" class="node"><title>node4</title>
<g id="a_node9"><a xlink:title="G:\Alexander\Work\Projects\othersDependenciesraphEngine\src\Modules\Trinity.FFI\Trinity.FFI.UnitTests\Trinity.FFI.UnitTests.csproj">
<path fill="beige" stroke="brown" stroke-width="2" d="M427.5,-60C427.5,-60 276.5,-60 276.5,-60 270.5,-60 264.5,-54 264.5,-48 264.5,-48 264.5,-36 264.5,-36 264.5,-30 270.5,-24 276.5,-24 276.5,-24 427.5,-24 427.5,-24 433.5,-24 439.5,-30 439.5,-36 439.5,-36 439.5,-48 439.5,-48 439.5,-54 433.5,-60 427.5,-60"/>
<text text-anchor="middle" x="352" y="-38.3" font-family="Times New Roman,serif" font-size="14.00">Trinity.FFI.UnitTests.csproj</text>
</a>
</g>
</g>
<!-- node1 -->
<g id="node10" class="node"><title>node1</title>
<polygon fill="none" stroke="red" stroke-width="2" stroke-dasharray="5,2" points="704,-430 0,-430 0,-394 704,-394 704,-430"/>
<text text-anchor="middle" x="352" y="-408.3" font-family="Times New Roman,serif" font-size="14.00">G:/Alexander/Work/Projects/others/GraphEngine/src/Modules/Trinity.FFI/pythonnet/src/runtime/Python.Runtime.15.csproj</text>
</g>
</g>
</svg>
